<svg width="2547" height="691" viewBox="0 0 2547 691" fill="none" xmlns="http://www.w3.org/2000/svg">
<path d="M738.145 73.5C738.145 33.1832 770.828 0.5 811.145 0.5H2443.45C2493.92 0.5 2529.17 50.4922 2512.21 98.0289L2359.87 525.041C2350.58 551.066 2327.4 569.618 2299.97 572.972L1338.9 690.5H811.144C770.828 690.5 738.145 657.817 738.145 617.5V73.5Z" fill="#22FFA3"/>
<path d="M0 167.366C0 78.4139 71.9181 6.20318 160.869 5.84187L1566.75 0.13145C1576.58 0.0915005 1580.56 12.7838 1572.46 18.3652L1279.97 219.954C1270.38 226.564 1277.92 241.454 1288.92 237.636L1890.2 29.0389C1901.46 25.1343 1908.88 40.6508 1898.78 46.9659L1716.59 160.863C1706.94 166.9 1713.27 181.804 1724.32 179.044L2429.7 2.82725C2437.19 0.95535 2444.94 0.337552 2452.64 0.99895C2488.8 4.1078 2516.58 34.3746 2516.58 70.6774V167.366V272.242C2516.58 272.712 2516.24 273.114 2515.78 273.194L2506.37 274.828C2395.55 294.075 2403.52 455.714 2515.7 463.967C2516.2 464.004 2516.58 464.419 2516.58 464.919V522.179C2516.58 614.864 2441.45 690 2348.76 690H1339.14C1329.47 690 1325.43 677.632 1333.24 671.925L1691.63 410.106C1700.87 403.357 1693.37 388.895 1682.53 392.557L803.592 689.578C802.766 689.858 801.899 690 801.027 690H167.821C75.1359 690 0 614.864 0 522.179V464.902C0 464.409 0.375387 463.998 0.866108 463.952C109.425 453.916 118.939 299.012 12.4243 275.766L0.765084 273.222C0.318455 273.124 0 272.729 0 272.272V167.366Z" fill="#36BE85"/>
</svg>
